<?xml version="1.0" encoding="UTF-8" standalone="no"?>
<!-- Created using Krita: https://krita.org -->

<svg
   width="240pt"
   height="240pt"
   viewBox="0 0 240 240"
   version="1.1"
   id="svg1"
   sodipodi:docname="dodov0.svg"
   inkscape:version="1.4.3 (0d15f75, 2025-12-25)"
   inkscape:export-filename="dodov0.png"
   inkscape:export-xdpi="96"
   inkscape:export-ydpi="96"
   xmlns:inkscape="http://www.inkscape.org/namespaces/inkscape"
   xmlns:sodipodi="http://sodipodi.sourceforge.net/DTD/sodipodi-0.dtd"
   xmlns="http://www.w3.org/2000/svg"
   xmlns:svg="http://www.w3.org/2000/svg">
  <sodipodi:namedview
     id="namedview1"
     pagecolor="#ffffff"
     bordercolor="#000000"
     borderopacity="0.25"
     inkscape:showpageshadow="2"
     inkscape:pageopacity="0.0"
     inkscape:pagecheckerboard="0"
     inkscape:deskcolor="#d1d1d1"
     inkscape:document-units="pt"
     inkscape:zoom="1.757903"
     inkscape:cx="168.9513"
     inkscape:cy="219.01094"
     inkscape:window-width="1216"
     inkscape:window-height="1217"
     inkscape:window-x="0"
     inkscape:window-y="0"
     inkscape:window-maximized="0"
     inkscape:current-layer="svg1"
     inkscape:export-bgcolor="#282828ff" />
  <defs
     id="defs1">
    <linearGradient
       id="swatch2"
       inkscape:swatch="solid">
      <stop
         style="stop-color:#ffffff;stop-opacity:1;"
         offset="0"
         id="stop2" />
    </linearGradient>
  </defs>
  <path
     id="shape0"
     fill="#ffffff"
     fill-rule="evenodd"
     stroke="#ffffff"
     stroke-width="2.4"
     stroke-linecap="square"
     stroke-linejoin="bevel"
     d="m 77.339164,124.28712 0.200819,4.70819 c -0.870233,1.02727 -0.387441,0.21324 -9.751073,4.44041 -5.554547,2.50757 -5.890807,10.39817 -5.890807,10.39817 l -0.205647,6.85805 c 12.7332,-2.7298 18.706455,-7.37692 25.589255,-14.33692 7.7395,-9.2169 16.074299,-4.8755 11.94,7.62 -14.5458,22.2329 -22.3458,36.9129 -23.4,44.0399 -1.0542,7.127 -5.7742,10.767 -14.16,10.92 l -19.68001,-5.76 c -3.09117,1.208 -5.35211,3.227 -2.64,7.08 13.32001,1.956 27.96001,11.072 41.28001,-0.72 6.64,-22.56 8.96,-24.48 15.48,-36.72 11.375199,-15.0605 14.495199,-26.4605 9.359999,-34.1999 -5.1353,-7.7394 -13.975299,-5.8194 -26.519999,5.76 -1.64,-7.28 -2.2,-14.29 -4.92,-21.84 -6.6667,-15.010401 -6.0649,-10.2344 -8.88,-14.760001 l 13.2,-7.8 c 3.1541,-11.126 -1.6594,-25.474 13.56,-31.68004 35.366199,-10.612313 53.939699,13.46384 62.219699,42.060041 2.253,16.0362 4.224,11.6152 -1.98,71.8199 1.72,35.2 32.6,29.6 49.44,29.76 2.046,-2.43 2.631,-4.932 -1.68,-7.68 -19.653,2.155 -36.848,4.411 -40.02,-22.32 0.76,-15.26 2.06,-21.52 2.82,-36.7799 2.088,-18.06 -3.474,-41.909701 -8.124,-53.178701 -8.626,-20.9079 -26.4209,-35.83042 -53.5557,-33.10134 -27.312899,3.06854 -30.664599,18.99034 -29.459999,38.85004 -10.51,4.4302 -16.97,6.0066 -27.30001,12.750001 -7.65285,7.1275 -7.74583,14.7014 -4.68,28.98 5.61444,16.8184 7.81019,17.1866 15.79501,28.1399 -0.01263,0.0341 1.166997,-1.87305 1.61239,-6.62066 0.80025,-8.53018 -0.892546,-14.77164 4.328852,-18.65422 5.221397,-3.88258 13.254316,-7.98829 13.254316,-7.98829"
     sodipodi:nodetypes="ccscccccccccccccccccczccccczcccssc"
     style="display:none;stroke-width:0;stroke-dasharray:none" />
  <path
     id="shape1"
     transform="translate(85.8,58.559998)"
     fill="#ffffff"
     fill-rule="evenodd"
     stroke="#ffffff"
     stroke-width="1.2"
     stroke-linecap="square"
     stroke-linejoin="bevel"
     d="M 0,3.72 C 2.9082,4.61286 3.36854,5.84814 4.2,7.38 5.43119,5.56069 6.09034,4.1693 8.46,4.2 14.6519,2.49446 47.4106,32.8164 51.78,43.38 57.21,64.1006 26.8558,67.548 11.4,66 l 1.86,4.38 C 30.3314,68.7912 54.9506,71.8708 57.12,49.02 57.215,30.3555 17.5893,0.101235 10.98,0 L 5.52,1.8 C 4.96,2.56 3.12,3.2 0,3.72 Z"
     sodipodi:nodetypes="cccccccccc"
     style="display:none" />
  <path
     id="shape2"
     transform="translate(59.174032,126.585)"
     fill="#000000"
     fill-rule="evenodd"
     stroke="#000000"
     stroke-width="1.2"
     stroke-linecap="square"
     stroke-linejoin="bevel"
     d="M 17.341,0.0299962 C 8.09096,4.69 2.85096,8.085 1.62096,10.215 0.390964,12.345 -0.139036,17.65 0.0309644,26.13 -0.0540345,18.04 0.460966,12.78 1.57597,10.35 2.69097,7.92 7.92597,4.47 17.281,0 Z"
     sodipodi:nodetypes="czczcc"
     style="display:none" />
  <path
     id="shape01"
     transform="translate(76.550308,108.42782)"
     fill="#000000"
     fill-rule="evenodd"
     stroke="#ffffff"
     stroke-width="1.2"
     stroke-linecap="square"
     stroke-linejoin="bevel"
     d="M 39.105,0.238723 C 24.1068,-0.29414 14.3268,2.28586 9.765,7.97872 5.2032,13.6716 1.9682,17.0116 0.06,17.9987 0.138858,17.7987 1.34485,17.1887 0,17.9687 4.1949,14.6344 7.3749,11.3594 9.54,8.14373 13.4255,2.37277 25.305,-0.94628 39.105,0.238723 Z"
     sodipodi:nodetypes="czccsc"
     style="display:none" />
  <path
     style="baseline-shift:baseline;display:inline;overflow:visible;opacity:1;vector-effect:none;fill:#ffffff;fill-opacity:1;stroke:none;stroke-opacity:1;enable-background:accumulate;stop-color:#000000;stop-opacity:1"
     d="m 117.84495,42.434314 c -18.570058,-0.615272 -28.017715,9.231071 -32.048837,18.953125 -3.372021,8.132467 -3.319744,15.004957 -3.238282,17.44336 -2.040794,0.658377 -7.29879,2.408905 -13.986328,5.55664 -8.149211,3.835726 -17.180618,8.839217 -19.93164,16.287111 -3.988348,10.79772 -1.73917,25.10617 4.160156,34.70703 5.492495,8.93877 13.142582,14.42202 13.142582,14.42202 l 6.256766,4.90008 -1.723562,-6.14813 c 0,0 -1.854166,-9.06812 -0.90755,-14.79463 0.997341,-6.03337 4.624424,-8.75128 9.271751,-10.67257 5.732654,-2.36999 8.83306,-3.48021 8.83306,-3.48021 l 1.990234,-0.62109 -0.253906,-2.07031 c 0,0 -0.36294,-2.973 -1.28125,-6.66016 -0.918311,-3.68716 -2.319884,-8.13972 -4.857422,-11.501946 -3.255545,-4.313604 -7.068095,-8.717511 -9.255859,-11.214851 6.258212,-2.677193 11.724609,-4.513672 11.724609,-4.513672 l 1.90625,-0.582031 -0.142578,-1.988281 c 0,0 -0.580171,-8.731795 2.912109,-17.154297 3.49228,-8.422502 10.422217,-16.427141 27.263677,-15.869141 16.95745,0.561843 27.45287,8.353226 34.47461,18.105469 7.02174,9.752243 10.33021,21.528474 12.00391,29.478524 3.26208,15.494916 2.34792,46.589646 -0.1211,60.374996 -1.34514,7.5104 -0.95501,14.832 1.28321,21.02343 2.23822,6.19144 6.4341,11.29029 12.47656,13.82813 5.87593,2.46789 13.63426,3.40678 20.05078,3.84179 6.41653,0.43502 11.49024,0.29688 11.49024,0.29688 l -0.13477,-4.99805 c 0,0 -4.84808,0.13116 -11.01758,-0.28711 -6.16949,-0.41827 -13.66293,-1.45295 -18.45312,-3.46484 -4.62365,-1.94193 -7.84075,-5.74999 -9.70899,-10.91797 -1.86823,-5.16798 -2.27917,-11.65921 -1.06445,-18.44141 2.65072,-14.79985 3.65797,-45.35507 0.0937,-62.28515 -1.73942,-8.262457 -5.14608,-20.683615 -12.83979,-31.369142 -7.69372,-10.685527 -19.91313,-19.572164 -38.36719,-20.183594 z"
     id="path3"
     sodipodi:nodetypes="sscssscccsscccssccccssssssssccsssscss" />
  <path
     style="baseline-shift:baseline;display:inline;overflow:visible;opacity:1;vector-effect:none;fill:#ffffff;fill-opacity:1;enable-background:accumulate;stop-color:#000000;stop-opacity:1"
     d="m 108.88596,119.04369 c -3.0984,-0.48587 -6.37447,0.58723 -9.375004,2.39258 -2.449567,1.47384 -4.89813,3.55302 -7.355468,5.84375 l -2.212891,-6.50977 -2.357422,0.78516 c 0,0 -1.09944,0.37547 -9.410156,4.00195 -5.240053,2.28657 -6.863711,7.56893 -7.097656,11.65234 -0.233946,4.08342 0.701171,7.56446 0.701171,7.56446 l 0.810547,3.0957 2.806641,-1.53711 c 0,0 10.469888,-5.54614 15.693359,-11.02539 3.928641,-4.12101 7.742555,-7.62602 10.999999,-9.58594 3.25745,-1.95992 5.48503,-2.3224 7.40235,-1.26367 1.52162,0.84022 2.24817,1.69765 2.66407,2.69336 0.41589,0.99572 0.52449,2.27074 0.23046,3.95703 -0.58806,3.37259 -2.88281,8.10874 -6.00781,13.51758 -6.25001,10.81768 -15.649684,24.44173 -19.806647,39.26563 -1.259738,4.49227 -3.645097,6.63005 -6.882812,7.85937 -3.237715,1.22933 -7.444128,1.30449 -11.607422,0.71094 -8.326589,-1.1871 -16.195313,-4.875 -16.195313,-4.875 l -2.140625,4.51758 c 0,0 8.321297,3.9794 17.63086,5.30664 4.654781,0.66362 9.628058,0.70702 14.08789,-0.98633 4.459833,-1.69335 8.290972,-5.36773 9.921875,-11.1836 3.83764,-13.68518 12.905064,-27.00958 19.320324,-38.11328 3.20762,-5.55185 5.7962,-10.51893 6.60547,-15.16015 0.40463,-2.32061 0.33917,-4.63216 -0.54297,-6.74414 -0.88214,-2.11198 -2.57768,-3.8846 -4.85938,-5.14453 -0.97655,-0.53925 -1.99064,-0.8732 -3.02344,-1.03516 z"
     id="path4"
     sodipodi:nodetypes="sscccsscccsssssssssccssssssss" />
  <path
     style="baseline-shift:baseline;display:inline;overflow:visible;opacity:1;vector-effect:none;fill:#ffffff;fill-opacity:1;stroke:none;stroke-opacity:1;enable-background:accumulate;stop-color:#000000;stop-opacity:1"
     d="m 106.83713,52.227283 c -1.11396,-0.193246 -2.19515,-0.154431 -3.33985,0.269531 -1.69446,0.627581 -2.76638,1.642031 -3.605464,2.71875 -1.50129,-1.406038 -3.634196,-2.651756 -6.589844,-2.412109 l -0.289001,4.635773 c 1.973224,-0.159991 3.36043,0.870729 3.996032,1.698211 0.635602,0.827483 0.841797,1.677735 0.841797,1.677735 l 3.01818,0.211239 c 0,0 1.44729,-3.549815 4.36464,-3.840146 4.07401,-0.405443 7.82319,2.972568 11.18164,5.166016 6.20509,4.121668 13.92001,10.600922 21.54102,19.052734 6.27823,6.962652 9.4292,11.685312 10.31836,15.365237 0.88916,3.679916 -0.0635,6.769046 -3.05469,11.677736 -3.34132,5.4833 -12.25153,8.43907 -20.71289,9.60742 -4.23068,0.58417 -8.2777,0.76983 -11.30469,0.8164 -2.24697,-0.035 -4.42095,0.001 -6.66516,0.0881 -0.52725,0.10054 1.86242,4.85519 1.86242,4.85519 -0.50107,0.10022 -0.33916,0.0396 -0.29883,0.0391 0.0403,-5.8e-4 0.13533,6.6e-4 0.25977,0.002 0.24888,0.003 0.62291,0.009 1.08984,0.0156 0.93387,0.013 2.24907,0.0243 3.83009,0 3.16203,-0.0487 7.39595,-0.23995 11.91015,-0.86328 9.02841,-1.24665 19.46323,-4.02348 24.29883,-11.95898 3.26818,-5.36327 4.9085,-10.22397 3.64453,-15.455076 -1.26396,-5.231116 -5.01207,-10.380895 -11.46484,-17.537113 -7.89197,-8.75231 -15.8659,-15.472248 -22.48828,-19.871094 -3.31119,-2.199422 -6.27532,-3.82089 -8.81446,-4.833984 -1.26957,-0.506547 -2.41533,-0.931754 -3.5293,-1.125 z"
     id="path5"
     sodipodi:nodetypes="sscccsccsssssssccccccssssssss" />
  <path
     style="display:inline;fill:none;fill-opacity:1;stroke:#ffffff;stroke-width:2;stroke-dasharray:none;stroke-opacity:1"
     d="m 89.755378,119.83383 c 0,0 7.3942,-2.57027 11.923312,-6.9071 7.16741,-6.86311 21.76267,-7.554 21.76267,-7.554"
     id="path7"
     sodipodi:nodetypes="csc" />
</svg>
